<mxfile host="app.diagrams.net" agent="Mozilla/5.0 (X11; Linux x86_64; rv:137.0) Gecko/20100101 Firefox/137.0" version="26.2.8">
  <diagram name="Page-1" id="tLvU6oHRpyx8z1Ljd7Lx">
    <mxGraphModel dx="1253" dy="812" grid="1" gridSize="10" guides="1" tooltips="1" connect="1" arrows="1" fold="1" page="1" pageScale="1" pageWidth="850" pageHeight="1100" math="0" shadow="0">
      <root>
        <mxCell id="0" />
        <mxCell id="1" parent="0" />
        <mxCell id="S_kV412zjn6Jai1kGIni-11" style="rounded=0;orthogonalLoop=1;jettySize=auto;html=1;entryX=0;entryY=0.5;entryDx=0;entryDy=0;" edge="1" parent="1" source="S_kV412zjn6Jai1kGIni-2" target="S_kV412zjn6Jai1kGIni-7">
          <mxGeometry relative="1" as="geometry" />
        </mxCell>
        <mxCell id="S_kV412zjn6Jai1kGIni-21" value="/start" style="edgeLabel;html=1;align=center;verticalAlign=middle;resizable=0;points=[];fontFamily=Helvetica;fontSize=11;fontColor=default;labelBackgroundColor=default;" vertex="1" connectable="0" parent="S_kV412zjn6Jai1kGIni-11">
          <mxGeometry x="0.0174" y="1" relative="1" as="geometry">
            <mxPoint as="offset" />
          </mxGeometry>
        </mxCell>
        <mxCell id="S_kV412zjn6Jai1kGIni-12" style="edgeStyle=none;shape=connector;rounded=0;orthogonalLoop=1;jettySize=auto;html=1;entryX=0;entryY=0.5;entryDx=0;entryDy=0;strokeColor=default;align=center;verticalAlign=middle;fontFamily=Helvetica;fontSize=11;fontColor=default;labelBackgroundColor=default;endArrow=classic;" edge="1" parent="1" source="S_kV412zjn6Jai1kGIni-2" target="S_kV412zjn6Jai1kGIni-8">
          <mxGeometry relative="1" as="geometry" />
        </mxCell>
        <mxCell id="S_kV412zjn6Jai1kGIni-22" value="&lt;div&gt;/help&lt;/div&gt;" style="edgeLabel;html=1;align=center;verticalAlign=middle;resizable=0;points=[];fontFamily=Helvetica;fontSize=11;fontColor=default;labelBackgroundColor=default;" vertex="1" connectable="0" parent="S_kV412zjn6Jai1kGIni-12">
          <mxGeometry x="-0.2948" y="3" relative="1" as="geometry">
            <mxPoint as="offset" />
          </mxGeometry>
        </mxCell>
        <mxCell id="S_kV412zjn6Jai1kGIni-13" style="edgeStyle=none;shape=connector;rounded=0;orthogonalLoop=1;jettySize=auto;html=1;entryX=0;entryY=0.5;entryDx=0;entryDy=0;strokeColor=default;align=center;verticalAlign=middle;fontFamily=Helvetica;fontSize=11;fontColor=default;labelBackgroundColor=default;endArrow=classic;" edge="1" parent="1" source="S_kV412zjn6Jai1kGIni-2" target="S_kV412zjn6Jai1kGIni-10">
          <mxGeometry relative="1" as="geometry" />
        </mxCell>
        <mxCell id="S_kV412zjn6Jai1kGIni-23" value="/status" style="edgeLabel;html=1;align=center;verticalAlign=middle;resizable=0;points=[];fontFamily=Helvetica;fontSize=11;fontColor=default;labelBackgroundColor=default;" vertex="1" connectable="0" parent="S_kV412zjn6Jai1kGIni-13">
          <mxGeometry x="-0.4968" y="-1" relative="1" as="geometry">
            <mxPoint as="offset" />
          </mxGeometry>
        </mxCell>
        <mxCell id="S_kV412zjn6Jai1kGIni-29" style="edgeStyle=none;shape=connector;rounded=0;orthogonalLoop=1;jettySize=auto;html=1;entryX=0;entryY=0.5;entryDx=0;entryDy=0;strokeColor=default;align=center;verticalAlign=middle;fontFamily=Helvetica;fontSize=11;fontColor=default;labelBackgroundColor=default;endArrow=classic;" edge="1" parent="1" source="S_kV412zjn6Jai1kGIni-2" target="S_kV412zjn6Jai1kGIni-28">
          <mxGeometry relative="1" as="geometry" />
        </mxCell>
        <mxCell id="S_kV412zjn6Jai1kGIni-66" value="/checkmessage" style="edgeLabel;html=1;align=center;verticalAlign=middle;resizable=0;points=[];fontFamily=Helvetica;fontSize=11;fontColor=default;labelBackgroundColor=default;" vertex="1" connectable="0" parent="S_kV412zjn6Jai1kGIni-29">
          <mxGeometry x="0.1143" y="4" relative="1" as="geometry">
            <mxPoint as="offset" />
          </mxGeometry>
        </mxCell>
        <mxCell id="S_kV412zjn6Jai1kGIni-2" value="User" style="shape=umlActor;verticalLabelPosition=bottom;verticalAlign=top;html=1;outlineConnect=0;" vertex="1" parent="1">
          <mxGeometry x="60" y="305" width="30" height="60" as="geometry" />
        </mxCell>
        <mxCell id="S_kV412zjn6Jai1kGIni-14" style="edgeStyle=none;shape=connector;rounded=0;orthogonalLoop=1;jettySize=auto;html=1;entryX=0;entryY=0.5;entryDx=0;entryDy=0;strokeColor=default;align=center;verticalAlign=middle;fontFamily=Helvetica;fontSize=11;fontColor=default;labelBackgroundColor=default;endArrow=classic;" edge="1" parent="1" source="S_kV412zjn6Jai1kGIni-3" target="S_kV412zjn6Jai1kGIni-7">
          <mxGeometry relative="1" as="geometry" />
        </mxCell>
        <mxCell id="S_kV412zjn6Jai1kGIni-27" value="/start" style="edgeLabel;html=1;align=center;verticalAlign=middle;resizable=0;points=[];fontFamily=Helvetica;fontSize=11;fontColor=default;labelBackgroundColor=default;" vertex="1" connectable="0" parent="S_kV412zjn6Jai1kGIni-14">
          <mxGeometry x="-0.5174" y="1" relative="1" as="geometry">
            <mxPoint as="offset" />
          </mxGeometry>
        </mxCell>
        <mxCell id="S_kV412zjn6Jai1kGIni-15" style="edgeStyle=none;shape=connector;rounded=0;orthogonalLoop=1;jettySize=auto;html=1;entryX=0;entryY=0.5;entryDx=0;entryDy=0;strokeColor=default;align=center;verticalAlign=middle;fontFamily=Helvetica;fontSize=11;fontColor=default;labelBackgroundColor=default;endArrow=classic;" edge="1" parent="1" source="S_kV412zjn6Jai1kGIni-3" target="S_kV412zjn6Jai1kGIni-8">
          <mxGeometry relative="1" as="geometry" />
        </mxCell>
        <mxCell id="S_kV412zjn6Jai1kGIni-26" value="/help" style="edgeLabel;html=1;align=center;verticalAlign=middle;resizable=0;points=[];fontFamily=Helvetica;fontSize=11;fontColor=default;labelBackgroundColor=default;" vertex="1" connectable="0" parent="S_kV412zjn6Jai1kGIni-15">
          <mxGeometry x="-0.2324" y="-1" relative="1" as="geometry">
            <mxPoint as="offset" />
          </mxGeometry>
        </mxCell>
        <mxCell id="S_kV412zjn6Jai1kGIni-16" style="edgeStyle=none;shape=connector;rounded=0;orthogonalLoop=1;jettySize=auto;html=1;entryX=0;entryY=0.5;entryDx=0;entryDy=0;strokeColor=default;align=center;verticalAlign=middle;fontFamily=Helvetica;fontSize=11;fontColor=default;labelBackgroundColor=default;endArrow=classic;" edge="1" parent="1" source="S_kV412zjn6Jai1kGIni-3" target="S_kV412zjn6Jai1kGIni-10">
          <mxGeometry relative="1" as="geometry" />
        </mxCell>
        <mxCell id="S_kV412zjn6Jai1kGIni-25" value="/status" style="edgeLabel;html=1;align=center;verticalAlign=middle;resizable=0;points=[];fontFamily=Helvetica;fontSize=11;fontColor=default;labelBackgroundColor=default;" vertex="1" connectable="0" parent="S_kV412zjn6Jai1kGIni-16">
          <mxGeometry x="-0.1022" relative="1" as="geometry">
            <mxPoint as="offset" />
          </mxGeometry>
        </mxCell>
        <mxCell id="S_kV412zjn6Jai1kGIni-17" style="edgeStyle=none;shape=connector;rounded=0;orthogonalLoop=1;jettySize=auto;html=1;entryX=0;entryY=0.5;entryDx=0;entryDy=0;strokeColor=default;align=center;verticalAlign=middle;fontFamily=Helvetica;fontSize=11;fontColor=default;labelBackgroundColor=default;endArrow=classic;" edge="1" parent="1" source="S_kV412zjn6Jai1kGIni-3" target="S_kV412zjn6Jai1kGIni-9">
          <mxGeometry relative="1" as="geometry" />
        </mxCell>
        <mxCell id="S_kV412zjn6Jai1kGIni-24" value="/toggle feature" style="edgeLabel;html=1;align=center;verticalAlign=middle;resizable=0;points=[];fontFamily=Helvetica;fontSize=11;fontColor=default;labelBackgroundColor=default;" vertex="1" connectable="0" parent="S_kV412zjn6Jai1kGIni-17">
          <mxGeometry x="-0.1582" relative="1" as="geometry">
            <mxPoint as="offset" />
          </mxGeometry>
        </mxCell>
        <mxCell id="S_kV412zjn6Jai1kGIni-30" style="edgeStyle=none;shape=connector;rounded=0;orthogonalLoop=1;jettySize=auto;html=1;entryX=0;entryY=0.5;entryDx=0;entryDy=0;strokeColor=default;align=center;verticalAlign=middle;fontFamily=Helvetica;fontSize=11;fontColor=default;labelBackgroundColor=default;endArrow=classic;" edge="1" parent="1" source="S_kV412zjn6Jai1kGIni-3" target="S_kV412zjn6Jai1kGIni-28">
          <mxGeometry relative="1" as="geometry" />
        </mxCell>
        <mxCell id="S_kV412zjn6Jai1kGIni-67" value="/checkmessage" style="edgeLabel;html=1;align=center;verticalAlign=middle;resizable=0;points=[];fontFamily=Helvetica;fontSize=11;fontColor=default;labelBackgroundColor=default;" vertex="1" connectable="0" parent="S_kV412zjn6Jai1kGIni-30">
          <mxGeometry x="0.1776" y="-3" relative="1" as="geometry">
            <mxPoint as="offset" />
          </mxGeometry>
        </mxCell>
        <mxCell id="S_kV412zjn6Jai1kGIni-3" value="Group Admin" style="shape=umlActor;verticalLabelPosition=bottom;verticalAlign=top;html=1;outlineConnect=0;" vertex="1" parent="1">
          <mxGeometry x="60" y="555" width="30" height="60" as="geometry" />
        </mxCell>
        <mxCell id="S_kV412zjn6Jai1kGIni-18" style="edgeStyle=none;shape=connector;rounded=0;orthogonalLoop=1;jettySize=auto;html=1;entryX=0;entryY=0.5;entryDx=0;entryDy=0;strokeColor=default;align=center;verticalAlign=middle;fontFamily=Helvetica;fontSize=11;fontColor=default;labelBackgroundColor=default;endArrow=classic;" edge="1" parent="1" source="S_kV412zjn6Jai1kGIni-4" target="S_kV412zjn6Jai1kGIni-6">
          <mxGeometry relative="1" as="geometry" />
        </mxCell>
        <mxCell id="S_kV412zjn6Jai1kGIni-20" value="Run bot" style="edgeLabel;html=1;align=center;verticalAlign=middle;resizable=0;points=[];fontFamily=Helvetica;fontSize=11;fontColor=default;labelBackgroundColor=default;" vertex="1" connectable="0" parent="S_kV412zjn6Jai1kGIni-18">
          <mxGeometry x="-0.0706" y="-1" relative="1" as="geometry">
            <mxPoint as="offset" />
          </mxGeometry>
        </mxCell>
        <mxCell id="S_kV412zjn6Jai1kGIni-4" value="Host" style="shape=umlActor;verticalLabelPosition=bottom;verticalAlign=top;html=1;outlineConnect=0;" vertex="1" parent="1">
          <mxGeometry x="70" y="80" width="30" height="60" as="geometry" />
        </mxCell>
        <mxCell id="S_kV412zjn6Jai1kGIni-6" value="Bot started" style="ellipse;whiteSpace=wrap;html=1;" vertex="1" parent="1">
          <mxGeometry x="550" y="75" width="140" height="70" as="geometry" />
        </mxCell>
        <mxCell id="S_kV412zjn6Jai1kGIni-7" value="&lt;div&gt;Print Welcome&amp;nbsp;&lt;/div&gt;&lt;div&gt;Message&lt;/div&gt;" style="ellipse;whiteSpace=wrap;html=1;" vertex="1" parent="1">
          <mxGeometry x="230" y="170" width="140" height="70" as="geometry" />
        </mxCell>
        <mxCell id="S_kV412zjn6Jai1kGIni-8" value="&lt;div&gt;Print Help&lt;/div&gt;&lt;div&gt;Message&lt;/div&gt;" style="ellipse;whiteSpace=wrap;html=1;" vertex="1" parent="1">
          <mxGeometry x="310" y="270" width="140" height="70" as="geometry" />
        </mxCell>
        <mxCell id="S_kV412zjn6Jai1kGIni-9" value="&lt;div&gt;Toggle Features&lt;/div&gt;&lt;div&gt;on and off&lt;/div&gt;" style="ellipse;whiteSpace=wrap;html=1;" vertex="1" parent="1">
          <mxGeometry x="230" y="659" width="140" height="70" as="geometry" />
        </mxCell>
        <mxCell id="S_kV412zjn6Jai1kGIni-10" value="&lt;div&gt;Print status&amp;nbsp;&lt;/div&gt;&lt;div&gt;of features&lt;/div&gt;" style="ellipse;whiteSpace=wrap;html=1;" vertex="1" parent="1">
          <mxGeometry x="310" y="555" width="140" height="70" as="geometry" />
        </mxCell>
        <mxCell id="S_kV412zjn6Jai1kGIni-71" style="edgeStyle=none;shape=connector;rounded=0;orthogonalLoop=1;jettySize=auto;html=1;strokeColor=default;align=center;verticalAlign=middle;fontFamily=Helvetica;fontSize=11;fontColor=default;labelBackgroundColor=default;endArrow=classic;entryX=0;entryY=1;entryDx=0;entryDy=0;" edge="1" parent="1" source="S_kV412zjn6Jai1kGIni-28" target="S_kV412zjn6Jai1kGIni-73">
          <mxGeometry relative="1" as="geometry">
            <mxPoint x="520" y="330" as="targetPoint" />
          </mxGeometry>
        </mxCell>
        <mxCell id="S_kV412zjn6Jai1kGIni-72" value="URL Found" style="edgeLabel;html=1;align=center;verticalAlign=middle;resizable=0;points=[];fontFamily=Helvetica;fontSize=11;fontColor=default;labelBackgroundColor=default;" vertex="1" connectable="0" parent="S_kV412zjn6Jai1kGIni-71">
          <mxGeometry x="-0.022" relative="1" as="geometry">
            <mxPoint as="offset" />
          </mxGeometry>
        </mxCell>
        <mxCell id="S_kV412zjn6Jai1kGIni-75" style="edgeStyle=none;shape=connector;rounded=0;orthogonalLoop=1;jettySize=auto;html=1;entryX=0;entryY=0.5;entryDx=0;entryDy=0;strokeColor=default;align=center;verticalAlign=middle;fontFamily=Helvetica;fontSize=11;fontColor=default;labelBackgroundColor=default;endArrow=classic;" edge="1" parent="1" source="S_kV412zjn6Jai1kGIni-28" target="S_kV412zjn6Jai1kGIni-74">
          <mxGeometry relative="1" as="geometry" />
        </mxCell>
        <mxCell id="S_kV412zjn6Jai1kGIni-78" value="URL not found" style="edgeLabel;html=1;align=center;verticalAlign=middle;resizable=0;points=[];fontFamily=Helvetica;fontSize=11;fontColor=default;labelBackgroundColor=default;" vertex="1" connectable="0" parent="S_kV412zjn6Jai1kGIni-75">
          <mxGeometry x="-0.0505" y="-3" relative="1" as="geometry">
            <mxPoint as="offset" />
          </mxGeometry>
        </mxCell>
        <mxCell id="S_kV412zjn6Jai1kGIni-28" value="Analyse Message" style="ellipse;whiteSpace=wrap;html=1;" vertex="1" parent="1">
          <mxGeometry x="320" y="410" width="140" height="70" as="geometry" />
        </mxCell>
        <mxCell id="S_kV412zjn6Jai1kGIni-39" value="" style="edgeStyle=none;shape=connector;rounded=0;orthogonalLoop=1;jettySize=auto;html=1;strokeColor=default;align=center;verticalAlign=middle;fontFamily=Helvetica;fontSize=11;fontColor=default;labelBackgroundColor=default;endArrow=classic;exitX=1;exitY=1;exitDx=0;exitDy=0;" edge="1" parent="1" target="S_kV412zjn6Jai1kGIni-38">
          <mxGeometry relative="1" as="geometry">
            <mxPoint x="669.7431151624403" y="379.6253045358616" as="sourcePoint" />
          </mxGeometry>
        </mxCell>
        <mxCell id="S_kV412zjn6Jai1kGIni-44" value="No malicious links" style="edgeLabel;html=1;align=center;verticalAlign=middle;resizable=0;points=[];fontFamily=Helvetica;fontSize=11;fontColor=default;labelBackgroundColor=default;" vertex="1" connectable="0" parent="S_kV412zjn6Jai1kGIni-39">
          <mxGeometry x="-0.1727" relative="1" as="geometry">
            <mxPoint as="offset" />
          </mxGeometry>
        </mxCell>
        <mxCell id="S_kV412zjn6Jai1kGIni-43" value="" style="edgeStyle=none;shape=connector;rounded=0;orthogonalLoop=1;jettySize=auto;html=1;strokeColor=default;align=center;verticalAlign=middle;fontFamily=Helvetica;fontSize=11;fontColor=default;labelBackgroundColor=default;endArrow=classic;" edge="1" parent="1" source="S_kV412zjn6Jai1kGIni-38">
          <mxGeometry relative="1" as="geometry">
            <mxPoint x="649.9999999999998" y="300" as="targetPoint" />
          </mxGeometry>
        </mxCell>
        <mxCell id="S_kV412zjn6Jai1kGIni-69" style="edgeStyle=none;shape=connector;rounded=0;orthogonalLoop=1;jettySize=auto;html=1;strokeColor=default;align=center;verticalAlign=middle;fontFamily=Helvetica;fontSize=11;fontColor=default;labelBackgroundColor=default;endArrow=classic;" edge="1" parent="1" source="S_kV412zjn6Jai1kGIni-68" target="S_kV412zjn6Jai1kGIni-2">
          <mxGeometry relative="1" as="geometry" />
        </mxCell>
        <mxCell id="S_kV412zjn6Jai1kGIni-70" style="edgeStyle=none;shape=connector;rounded=0;orthogonalLoop=1;jettySize=auto;html=1;strokeColor=default;align=center;verticalAlign=middle;fontFamily=Helvetica;fontSize=11;fontColor=default;labelBackgroundColor=default;endArrow=classic;" edge="1" parent="1" source="S_kV412zjn6Jai1kGIni-68" target="S_kV412zjn6Jai1kGIni-3">
          <mxGeometry relative="1" as="geometry" />
        </mxCell>
        <mxCell id="S_kV412zjn6Jai1kGIni-86" style="edgeStyle=none;shape=connector;rounded=0;orthogonalLoop=1;jettySize=auto;html=1;entryX=1;entryY=1;entryDx=0;entryDy=0;strokeColor=default;align=center;verticalAlign=middle;fontFamily=Helvetica;fontSize=11;fontColor=default;labelBackgroundColor=default;endArrow=classic;" edge="1" parent="1" source="S_kV412zjn6Jai1kGIni-68" target="S_kV412zjn6Jai1kGIni-6">
          <mxGeometry relative="1" as="geometry" />
        </mxCell>
        <mxCell id="S_kV412zjn6Jai1kGIni-89" value="Log" style="edgeLabel;html=1;align=center;verticalAlign=middle;resizable=0;points=[];fontFamily=Helvetica;fontSize=11;fontColor=default;labelBackgroundColor=default;" vertex="1" connectable="0" parent="S_kV412zjn6Jai1kGIni-86">
          <mxGeometry x="0.1514" y="3" relative="1" as="geometry">
            <mxPoint as="offset" />
          </mxGeometry>
        </mxCell>
        <mxCell id="S_kV412zjn6Jai1kGIni-68" value="Report Message" style="ellipse;whiteSpace=wrap;html=1;" vertex="1" parent="1">
          <mxGeometry x="600" y="410" width="140" height="70" as="geometry" />
        </mxCell>
        <mxCell id="S_kV412zjn6Jai1kGIni-76" style="edgeStyle=none;shape=connector;rounded=0;orthogonalLoop=1;jettySize=auto;html=1;strokeColor=default;align=center;verticalAlign=middle;fontFamily=Helvetica;fontSize=11;fontColor=default;labelBackgroundColor=default;endArrow=classic;" edge="1" parent="1" source="S_kV412zjn6Jai1kGIni-73" target="S_kV412zjn6Jai1kGIni-74">
          <mxGeometry relative="1" as="geometry" />
        </mxCell>
        <mxCell id="S_kV412zjn6Jai1kGIni-77" value="&lt;div&gt;No Malicioius&lt;/div&gt;&lt;div&gt;Link Found&lt;/div&gt;" style="edgeLabel;html=1;align=center;verticalAlign=middle;resizable=0;points=[];fontFamily=Helvetica;fontSize=11;fontColor=default;labelBackgroundColor=default;" vertex="1" connectable="0" parent="S_kV412zjn6Jai1kGIni-76">
          <mxGeometry x="-0.67" y="-1" relative="1" as="geometry">
            <mxPoint as="offset" />
          </mxGeometry>
        </mxCell>
        <mxCell id="S_kV412zjn6Jai1kGIni-80" style="edgeStyle=none;shape=connector;rounded=0;orthogonalLoop=1;jettySize=auto;html=1;strokeColor=default;align=center;verticalAlign=middle;fontFamily=Helvetica;fontSize=11;fontColor=default;labelBackgroundColor=default;endArrow=classic;" edge="1" parent="1" source="S_kV412zjn6Jai1kGIni-73" target="S_kV412zjn6Jai1kGIni-68">
          <mxGeometry relative="1" as="geometry" />
        </mxCell>
        <mxCell id="S_kV412zjn6Jai1kGIni-83" value="Malicious &lt;br&gt;link found" style="edgeLabel;html=1;align=center;verticalAlign=middle;resizable=0;points=[];fontFamily=Helvetica;fontSize=11;fontColor=default;labelBackgroundColor=default;" vertex="1" connectable="0" parent="S_kV412zjn6Jai1kGIni-80">
          <mxGeometry x="-0.1287" y="1" relative="1" as="geometry">
            <mxPoint as="offset" />
          </mxGeometry>
        </mxCell>
        <mxCell id="S_kV412zjn6Jai1kGIni-73" value="Check Malicious Link" style="ellipse;whiteSpace=wrap;html=1;" vertex="1" parent="1">
          <mxGeometry x="480" y="270" width="140" height="70" as="geometry" />
        </mxCell>
        <mxCell id="S_kV412zjn6Jai1kGIni-84" style="edgeStyle=none;shape=connector;rounded=0;orthogonalLoop=1;jettySize=auto;html=1;entryX=0;entryY=0.5;entryDx=0;entryDy=0;strokeColor=default;align=center;verticalAlign=middle;fontFamily=Helvetica;fontSize=11;fontColor=default;labelBackgroundColor=default;endArrow=classic;" edge="1" parent="1" source="S_kV412zjn6Jai1kGIni-74" target="S_kV412zjn6Jai1kGIni-81">
          <mxGeometry relative="1" as="geometry" />
        </mxCell>
        <mxCell id="S_kV412zjn6Jai1kGIni-85" value="&lt;div&gt;No Spam&lt;/div&gt;&lt;div&gt;found&lt;/div&gt;" style="edgeLabel;html=1;align=center;verticalAlign=middle;resizable=0;points=[];fontFamily=Helvetica;fontSize=11;fontColor=default;labelBackgroundColor=default;" vertex="1" connectable="0" parent="S_kV412zjn6Jai1kGIni-84">
          <mxGeometry x="-0.2311" relative="1" as="geometry">
            <mxPoint as="offset" />
          </mxGeometry>
        </mxCell>
        <mxCell id="S_kV412zjn6Jai1kGIni-74" value="Check Spam" style="ellipse;whiteSpace=wrap;html=1;" vertex="1" parent="1">
          <mxGeometry x="460" y="530" width="140" height="70" as="geometry" />
        </mxCell>
        <mxCell id="S_kV412zjn6Jai1kGIni-79" style="edgeStyle=none;shape=connector;rounded=0;orthogonalLoop=1;jettySize=auto;html=1;entryX=0.315;entryY=0.907;entryDx=0;entryDy=0;entryPerimeter=0;strokeColor=default;align=center;verticalAlign=middle;fontFamily=Helvetica;fontSize=11;fontColor=default;labelBackgroundColor=default;endArrow=classic;" edge="1" parent="1" source="S_kV412zjn6Jai1kGIni-74" target="S_kV412zjn6Jai1kGIni-68">
          <mxGeometry relative="1" as="geometry" />
        </mxCell>
        <mxCell id="S_kV412zjn6Jai1kGIni-82" value="Spam Found" style="edgeLabel;html=1;align=center;verticalAlign=middle;resizable=0;points=[];fontFamily=Helvetica;fontSize=11;fontColor=default;labelBackgroundColor=default;" vertex="1" connectable="0" parent="S_kV412zjn6Jai1kGIni-79">
          <mxGeometry x="-0.0289" y="-2" relative="1" as="geometry">
            <mxPoint as="offset" />
          </mxGeometry>
        </mxCell>
        <mxCell id="S_kV412zjn6Jai1kGIni-87" style="edgeStyle=none;shape=connector;rounded=0;orthogonalLoop=1;jettySize=auto;html=1;entryX=0.5;entryY=1;entryDx=0;entryDy=0;strokeColor=default;align=center;verticalAlign=middle;fontFamily=Helvetica;fontSize=11;fontColor=default;labelBackgroundColor=default;endArrow=classic;" edge="1" parent="1" source="S_kV412zjn6Jai1kGIni-81" target="S_kV412zjn6Jai1kGIni-68">
          <mxGeometry relative="1" as="geometry" />
        </mxCell>
        <mxCell id="S_kV412zjn6Jai1kGIni-88" value="Fake News Found" style="edgeLabel;html=1;align=center;verticalAlign=middle;resizable=0;points=[];fontFamily=Helvetica;fontSize=11;fontColor=default;labelBackgroundColor=default;" vertex="1" connectable="0" parent="S_kV412zjn6Jai1kGIni-87">
          <mxGeometry y="-3" relative="1" as="geometry">
            <mxPoint as="offset" />
          </mxGeometry>
        </mxCell>
        <mxCell id="S_kV412zjn6Jai1kGIni-81" value="Check Fake News" style="ellipse;whiteSpace=wrap;html=1;" vertex="1" parent="1">
          <mxGeometry x="600" y="640" width="140" height="70" as="geometry" />
        </mxCell>
      </root>
    </mxGraphModel>
  </diagram>
</mxfile>
